<svg width="154.825" height="16.995" viewBox="0 0 154.825 16.995" xmlns="http://www.w3.org/2000/svg"><g id="svgGroup" stroke-linecap="round" fill-rule="nonzero" font-size="9pt" stroke="#1f9f25" stroke-width="0.25mm" fill="#1f9f25" style="stroke:#1f9f25;stroke-width:0.25mm;fill:#1f9f25"><path d="M 0 15.136 L 0.924 14.08 Q 1.694 14.817 2.717 15.263 Q 3.74 15.708 5.17 15.708 Q 6.138 15.708 7.007 15.378 Q 7.876 15.048 8.426 14.366 Q 8.976 13.684 8.976 12.628 Q 8.976 11.836 8.679 11.281 Q 8.382 10.725 7.623 10.291 Q 6.864 9.856 5.489 9.46 Q 4.081 9.053 2.981 8.531 Q 1.881 8.008 1.254 7.211 Q 0.627 6.413 0.627 5.192 Q 0.627 4.136 1.205 3.289 Q 1.782 2.442 2.827 1.947 Q 3.872 1.452 5.28 1.452 Q 6.787 1.452 7.893 1.881 Q 8.998 2.31 9.933 3.113 L 8.987 4.147 Q 8.162 3.399 7.211 3.069 Q 6.259 2.739 5.28 2.739 Q 4.411 2.739 3.674 3.009 Q 2.937 3.278 2.486 3.817 Q 2.035 4.356 2.035 5.192 Q 2.035 5.896 2.409 6.408 Q 2.783 6.919 3.669 7.343 Q 4.554 7.766 6.061 8.206 Q 7.161 8.514 8.162 8.993 Q 9.163 9.471 9.796 10.335 Q 10.428 11.198 10.428 12.661 Q 10.428 13.926 9.807 14.905 Q 9.185 15.884 7.997 16.44 Q 6.809 16.995 5.093 16.995 Q 3.586 16.995 2.272 16.522 Q 0.957 16.049 0 15.136 Z M 102.322 16.775 L 100.991 12.738 L 94.545 12.738 L 93.214 16.775 L 91.894 16.775 L 96.899 1.661 L 98.758 1.661 L 103.774 16.775 L 102.322 16.775 Z M 97.79 2.97 L 95.018 11.462 L 100.529 11.462 L 97.79 2.97 Z M 72.974 16.775 L 67.353 16.775 L 67.353 15.631 L 69.234 15.631 L 69.234 6.38 L 67.353 6.38 L 67.353 5.225 L 70.279 5.225 L 70.532 7.997 Q 71.214 6.589 72.166 5.792 Q 73.117 4.994 74.734 4.994 Q 75.185 4.994 75.543 5.06 Q 75.9 5.126 76.296 5.225 L 75.911 6.512 Q 75.526 6.402 75.235 6.353 Q 74.943 6.303 74.569 6.303 Q 73.172 6.303 72.193 7.255 Q 71.214 8.206 70.598 10.263 L 70.598 15.631 L 72.974 15.631 L 72.974 16.775 Z M 153.461 6.468 L 153.461 0.363 L 154.825 0.55 L 154.825 16.775 L 153.637 16.775 L 153.461 15.18 Q 152.768 16.17 151.916 16.583 Q 151.063 16.995 150.161 16.995 Q 148.632 16.995 147.648 16.242 Q 146.663 15.488 146.19 14.141 Q 145.717 12.793 145.717 11.033 Q 145.717 9.306 146.251 7.948 Q 146.784 6.589 147.791 5.803 Q 148.797 5.016 150.227 5.016 Q 151.283 5.016 152.075 5.385 Q 152.867 5.753 153.461 6.468 Z M 153.461 13.838 L 153.461 7.832 Q 152.955 7.051 152.202 6.622 Q 151.448 6.193 150.568 6.193 Q 148.962 6.193 148.11 7.409 Q 147.257 8.624 147.257 11.022 Q 147.257 12.54 147.604 13.613 Q 147.95 14.685 148.632 15.246 Q 149.314 15.807 150.337 15.807 Q 151.437 15.807 152.202 15.191 Q 152.966 14.575 153.461 13.838 Z M 48.664 5.225 L 50.094 5.225 L 45.793 16.775 L 44.22 16.775 L 39.974 5.225 L 41.393 5.225 L 45.067 15.389 L 48.664 5.225 Z M 26.73 0.55 L 26.73 1.738 L 30.316 1.738 L 30.316 14.157 Q 30.316 15.51 31.268 16.253 Q 32.219 16.995 33.583 16.995 Q 34.397 16.995 35.057 16.825 Q 35.717 16.654 36.146 16.445 L 35.75 15.389 Q 35.244 15.587 34.755 15.697 Q 34.265 15.807 33.715 15.807 Q 32.835 15.807 32.258 15.433 Q 31.68 15.059 31.68 14.157 L 31.68 0.55 L 26.73 0.55 Z M 105.93 0.55 L 105.93 1.738 L 109.516 1.738 L 109.516 14.157 Q 109.516 15.51 110.468 16.253 Q 111.419 16.995 112.783 16.995 Q 113.597 16.995 114.257 16.825 Q 114.917 16.654 115.346 16.445 L 114.95 15.389 Q 114.444 15.587 113.955 15.697 Q 113.465 15.807 112.915 15.807 Q 112.035 15.807 111.458 15.433 Q 110.88 15.059 110.88 14.157 L 110.88 0.55 L 105.93 0.55 Z M 62.887 11.55 L 55.033 11.55 Q 55.066 13.002 55.556 13.932 Q 56.045 14.861 56.848 15.301 Q 57.651 15.741 58.597 15.741 Q 59.51 15.741 60.22 15.477 Q 60.929 15.213 61.71 14.674 L 62.425 15.697 Q 61.622 16.313 60.616 16.654 Q 59.609 16.995 58.652 16.995 Q 57.057 16.995 55.919 16.247 Q 54.78 15.499 54.175 14.152 Q 53.57 12.804 53.57 11.011 Q 53.57 9.251 54.186 7.898 Q 54.802 6.545 55.897 5.781 Q 56.991 5.016 58.443 5.016 Q 59.851 5.016 60.852 5.698 Q 61.853 6.38 62.387 7.629 Q 62.92 8.877 62.92 10.604 Q 62.92 10.901 62.909 11.138 Q 62.898 11.374 62.887 11.55 Z M 55.055 10.318 L 61.622 10.318 Q 61.578 8.283 60.709 7.288 Q 59.84 6.292 58.476 6.292 Q 57.079 6.292 56.128 7.282 Q 55.176 8.272 55.055 10.318 Z M 128.128 14.718 L 128.843 15.642 Q 128.084 16.28 127.028 16.638 Q 125.972 16.995 125.048 16.995 Q 123.365 16.995 122.194 16.264 Q 121.022 15.532 120.412 14.19 Q 119.801 12.848 119.801 11.044 Q 119.801 9.328 120.412 7.964 Q 121.022 6.6 122.194 5.808 Q 123.365 5.016 125.059 5.016 Q 126.104 5.016 127.056 5.346 Q 128.007 5.676 128.81 6.325 L 128.084 7.304 Q 127.303 6.765 126.539 6.496 Q 125.774 6.226 124.993 6.226 Q 123.398 6.226 122.359 7.436 Q 121.319 8.646 121.319 11.044 Q 121.319 12.661 121.792 13.701 Q 122.265 14.74 123.096 15.241 Q 123.926 15.741 124.993 15.741 Q 125.917 15.741 126.704 15.455 Q 127.49 15.169 128.128 14.718 Z M 15.026 5.225 L 19.932 5.225 L 19.932 15.587 L 23.287 15.587 L 23.287 16.775 L 14.916 16.775 L 14.916 15.587 L 18.568 15.587 L 18.568 6.413 L 15.026 6.413 L 15.026 5.225 Z M 133.826 5.225 L 138.732 5.225 L 138.732 15.587 L 142.087 15.587 L 142.087 16.775 L 133.716 16.775 L 133.716 15.587 L 137.368 15.587 L 137.368 6.413 L 133.826 6.413 L 133.826 5.225 Z M 76.296 5.225 L 76.142 8.855 L 74.822 8.855 L 74.822 6.6 L 74.91 5.225 L 76.296 5.225 Z M 18.645 0 Q 19.173 0 19.481 0.319 Q 19.789 0.638 19.789 1.089 Q 19.789 1.573 19.481 1.898 Q 19.173 2.222 18.645 2.222 Q 18.15 2.222 17.842 1.898 Q 17.534 1.573 17.534 1.089 Q 17.534 0.638 17.842 0.319 Q 18.15 0 18.645 0 Z M 137.445 0 Q 137.973 0 138.281 0.319 Q 138.589 0.638 138.589 1.089 Q 138.589 1.573 138.281 1.898 Q 137.973 2.222 137.445 2.222 Q 136.95 2.222 136.642 1.898 Q 136.334 1.573 136.334 1.089 Q 136.334 0.638 136.642 0.319 Q 136.95 0 137.445 0 Z"/></g></svg>