<svg width="155.749" height="17.6" viewBox="0 0 155.749 17.6" xmlns="http://www.w3.org/2000/svg"><g id="svgGroup" stroke-linecap="round" fill-rule="evenodd" font-size="9pt" stroke="#1f9f25" stroke-width="0.25mm" fill="#1f9f25" style="stroke:#1f9f25;stroke-width:0.25mm;fill:#1f9f25"><path d="M 0 15.565 L 1.397 14.003 Q 2.211 14.74 3.234 15.164 Q 4.257 15.587 5.577 15.587 Q 6.435 15.587 7.15 15.318 Q 7.865 15.048 8.294 14.504 Q 8.723 13.959 8.723 13.134 Q 8.723 12.463 8.448 12.001 Q 8.173 11.539 7.496 11.165 Q 6.82 10.791 5.61 10.439 Q 4.004 9.955 2.915 9.361 Q 1.826 8.767 1.271 7.937 Q 0.715 7.106 0.715 5.918 Q 0.715 4.686 1.392 3.762 Q 2.068 2.838 3.25 2.327 Q 4.433 1.815 5.929 1.815 Q 7.579 1.815 8.811 2.288 Q 10.043 2.761 11.011 3.641 L 9.669 5.159 Q 8.866 4.455 7.948 4.136 Q 7.029 3.817 6.083 3.817 Q 5.313 3.817 4.686 4.037 Q 4.059 4.257 3.696 4.686 Q 3.333 5.115 3.333 5.775 Q 3.333 6.358 3.657 6.776 Q 3.982 7.194 4.758 7.552 Q 5.533 7.909 6.886 8.316 Q 8.162 8.69 9.18 9.24 Q 10.197 9.79 10.785 10.681 Q 11.374 11.572 11.374 13.013 Q 11.374 14.355 10.687 15.395 Q 9.999 16.434 8.707 17.017 Q 7.414 17.6 5.588 17.6 Q 3.74 17.6 2.348 17.045 Q 0.957 16.489 0 15.565 Z M 102.025 17.303 L 100.969 13.651 L 95.546 13.651 L 94.49 17.303 L 91.894 17.303 L 96.723 2.123 L 99.891 2.123 L 104.731 17.303 L 102.025 17.303 Z M 48.521 5.687 L 51.04 5.687 L 46.948 17.303 L 44.066 17.303 L 39.974 5.687 L 42.614 5.687 L 45.562 15.257 L 48.521 5.687 Z M 73.887 17.303 L 67.375 17.303 L 67.375 15.543 L 69.08 15.543 L 69.08 7.436 L 67.375 7.436 L 67.375 5.687 L 70.961 5.687 L 71.412 8.382 Q 72.061 6.919 73.024 6.155 Q 73.986 5.39 75.504 5.39 Q 76.021 5.39 76.434 5.473 Q 76.846 5.555 77.253 5.687 L 76.516 7.799 Q 76.164 7.7 75.856 7.651 Q 75.548 7.601 75.174 7.601 Q 73.909 7.601 72.991 8.547 Q 72.072 9.493 71.544 11.231 L 71.544 15.543 L 73.887 15.543 L 73.887 17.303 Z M 153.285 6.644 L 153.285 0.748 L 155.749 1.023 L 155.749 17.303 L 153.582 17.303 L 153.406 15.873 Q 152.812 16.698 151.987 17.149 Q 151.162 17.6 150.139 17.6 Q 148.643 17.6 147.675 16.836 Q 146.707 16.071 146.239 14.691 Q 145.772 13.31 145.772 11.495 Q 145.772 9.724 146.322 8.344 Q 146.872 6.963 147.895 6.171 Q 148.918 5.379 150.359 5.379 Q 151.272 5.379 151.998 5.704 Q 152.724 6.028 153.285 6.644 Z M 26.796 1.023 L 32.769 1.023 L 32.769 14.135 Q 32.769 14.938 33.259 15.274 Q 33.748 15.609 34.529 15.609 Q 35.035 15.609 35.486 15.499 Q 35.937 15.389 36.366 15.224 L 36.993 16.94 Q 36.476 17.204 35.723 17.402 Q 34.969 17.6 34.001 17.6 Q 32.252 17.6 31.278 16.616 Q 30.305 15.631 30.305 13.915 L 30.305 2.838 L 26.796 2.838 L 26.796 1.023 Z M 105.996 1.023 L 111.969 1.023 L 111.969 14.135 Q 111.969 14.938 112.459 15.274 Q 112.948 15.609 113.729 15.609 Q 114.235 15.609 114.686 15.499 Q 115.137 15.389 115.566 15.224 L 116.193 16.94 Q 115.676 17.204 114.923 17.402 Q 114.169 17.6 113.201 17.6 Q 111.452 17.6 110.479 16.616 Q 109.505 15.631 109.505 13.915 L 109.505 2.838 L 105.996 2.838 L 105.996 1.023 Z M 63.811 12.287 L 56.111 12.287 Q 56.188 13.475 56.617 14.229 Q 57.046 14.982 57.745 15.334 Q 58.443 15.686 59.279 15.686 Q 60.137 15.686 60.863 15.422 Q 61.589 15.158 62.326 14.674 L 63.393 16.148 Q 62.579 16.808 61.49 17.204 Q 60.401 17.6 59.158 17.6 Q 57.354 17.6 56.106 16.83 Q 54.857 16.06 54.208 14.685 Q 53.559 13.31 53.559 11.506 Q 53.559 9.757 54.197 8.377 Q 54.835 6.996 56.023 6.188 Q 57.211 5.379 58.861 5.379 Q 60.412 5.379 61.529 6.083 Q 62.645 6.787 63.256 8.08 Q 63.866 9.372 63.866 11.187 Q 63.866 11.484 63.849 11.776 Q 63.833 12.067 63.811 12.287 Z M 128.524 14.564 L 129.668 16.148 Q 128.909 16.797 127.826 17.199 Q 126.742 17.6 125.587 17.6 Q 123.805 17.6 122.54 16.847 Q 121.275 16.093 120.604 14.729 Q 119.933 13.365 119.933 11.55 Q 119.933 9.779 120.61 8.388 Q 121.286 6.996 122.562 6.188 Q 123.838 5.379 125.631 5.379 Q 126.819 5.379 127.82 5.731 Q 128.821 6.083 129.657 6.776 L 128.524 8.327 Q 127.842 7.854 127.133 7.607 Q 126.423 7.359 125.675 7.359 Q 124.3 7.359 123.426 8.371 Q 122.551 9.383 122.551 11.55 Q 122.551 13.002 122.953 13.888 Q 123.354 14.773 124.058 15.175 Q 124.762 15.576 125.664 15.576 Q 126.478 15.576 127.182 15.296 Q 127.886 15.015 128.524 14.564 Z M 14.982 5.687 L 20.812 5.687 L 20.812 15.499 L 23.969 15.499 L 23.969 17.303 L 14.872 17.303 L 14.872 15.499 L 18.348 15.499 L 18.348 7.491 L 14.982 7.491 L 14.982 5.687 Z M 133.782 5.687 L 139.612 5.687 L 139.612 15.499 L 142.769 15.499 L 142.769 17.303 L 133.672 17.303 L 133.672 15.499 L 137.148 15.499 L 137.148 7.491 L 133.782 7.491 L 133.782 5.687 Z M 153.285 14.058 L 153.285 8.558 Q 152.856 7.942 152.284 7.607 Q 151.712 7.271 151.008 7.271 Q 149.765 7.271 149.072 8.3 Q 148.379 9.328 148.379 11.495 Q 148.379 12.98 148.665 13.91 Q 148.951 14.839 149.49 15.274 Q 150.029 15.708 150.788 15.708 Q 151.624 15.708 152.24 15.224 Q 152.856 14.74 153.285 14.058 Z M 98.263 4.103 L 96.074 11.682 L 100.43 11.682 L 98.263 4.103 Z M 56.1 10.604 L 61.479 10.604 Q 61.446 8.965 60.781 8.085 Q 60.115 7.205 58.883 7.205 Q 57.728 7.205 56.975 8.03 Q 56.221 8.855 56.1 10.604 Z M 77.253 5.687 L 76.835 9.966 L 75.075 9.966 L 75.075 7.106 L 75.383 5.687 L 77.253 5.687 Z M 19.096 0 Q 19.822 0 20.268 0.44 Q 20.713 0.88 20.713 1.54 Q 20.713 2.2 20.268 2.651 Q 19.822 3.102 19.096 3.102 Q 18.392 3.102 17.941 2.651 Q 17.49 2.2 17.49 1.54 Q 17.49 0.88 17.941 0.44 Q 18.392 0 19.096 0 Z M 137.896 0 Q 138.622 0 139.068 0.44 Q 139.513 0.88 139.513 1.54 Q 139.513 2.2 139.068 2.651 Q 138.622 3.102 137.896 3.102 Q 137.192 3.102 136.741 2.651 Q 136.29 2.2 136.29 1.54 Q 136.29 0.88 136.741 0.44 Q 137.192 0 137.896 0 Z" vector-effect="non-scaling-stroke"/></g></svg>